<svg xmlns="http://www.w3.org/2000/svg" version="1.1" xmlns:xlink="http://www.w3.org/1999/xlink" xmlns:svgjs="http://svgjs.dev/svgjs" width="1000" height="1000"><style>
    #light-icon {
      display: inline;
    }
    #dark-icon {
      display: none;
    }

    @media (prefers-color-scheme: dark) {
      #light-icon {
        display: none;
      }
      #dark-icon {
        display: inline;
      }
    }
  </style><g id="light-icon"><svg xmlns="http://www.w3.org/2000/svg" version="1.1" xmlns:xlink="http://www.w3.org/1999/xlink" xmlns:svgjs="http://svgjs.dev/svgjs" width="1000" height="1000"><g clip-path="url(#SvgjsClipPath1497)"><rect width="1000" height="1000" fill="#ffffff"></rect><g transform="matrix(33.333333333333336,0,0,33.333333333333336,100,100)"><svg xmlns="http://www.w3.org/2000/svg" version="1.1" xmlns:xlink="http://www.w3.org/1999/xlink" xmlns:svgjs="http://svgjs.dev/svgjs" width="24" height="24"><svg xmlns="http://www.w3.org/2000/svg" viewBox="0 0 24 24" width="24" height="24" fill="#512DA8">
    <path d="M11.97 6.97a.75.75 0 0 0 0 1.06l2.47 2.47-2.47 2.47a.75.75 0 1 0 1.06 1.06l3-3a.75.75 0 0 0 0-1.06l-3-3a.75.75 0 0 0-1.06 0ZM9.03 8.03a.75.75 0 0 0-1.06-1.06l-3 3a.75.75 0 0 0 0 1.06l3 3a.75.75 0 0 0 1.06-1.06L6.56 10.5l2.47-2.47Z"></path>
    <path d="M10.5 0C16.299 0 21 4.701 21 10.5a10.457 10.457 0 0 1-2.564 6.875l4.344 4.345a.749.749 0 0 1-.326 1.275.749.749 0 0 1-.734-.215l-4.345-4.344A10.459 10.459 0 0 1 10.5 21C4.701 21 0 16.299 0 10.5S4.701 0 10.5 0Zm-9 10.5a9 9 0 0 0 9 9 9 9 0 0 0 9-9 9 9 0 0 0-9-9 9 9 0 0 0-9 9Z"></path>
</svg></svg></g></g><defs><clipPath id="SvgjsClipPath1497"><rect width="1000" height="1000" x="0" y="0" rx="250" ry="250"></rect></clipPath></defs></svg></g><g id="dark-icon"><svg xmlns="http://www.w3.org/2000/svg" version="1.1" xmlns:xlink="http://www.w3.org/1999/xlink" xmlns:svgjs="http://svgjs.dev/svgjs" width="1000" height="1000"><g clip-path="url(#SvgjsClipPath1498)"><rect width="1000" height="1000" fill="#ffffff"></rect><g transform="matrix(29.166666666666668,0,0,29.166666666666668,150,150)"><svg xmlns="http://www.w3.org/2000/svg" version="1.1" xmlns:xlink="http://www.w3.org/1999/xlink" xmlns:svgjs="http://svgjs.dev/svgjs" width="24" height="24"><svg xmlns="http://www.w3.org/2000/svg" viewBox="0 0 24 24" width="24" height="24" fill="#512DA8">
    <path d="M11.97 6.97a.75.75 0 0 0 0 1.06l2.47 2.47-2.47 2.47a.75.75 0 1 0 1.06 1.06l3-3a.75.75 0 0 0 0-1.06l-3-3a.75.75 0 0 0-1.06 0ZM9.03 8.03a.75.75 0 0 0-1.06-1.06l-3 3a.75.75 0 0 0 0 1.06l3 3a.75.75 0 0 0 1.06-1.06L6.56 10.5l2.47-2.47Z"></path>
    <path d="M10.5 0C16.299 0 21 4.701 21 10.5a10.457 10.457 0 0 1-2.564 6.875l4.344 4.345a.749.749 0 0 1-.326 1.275.749.749 0 0 1-.734-.215l-4.345-4.344A10.459 10.459 0 0 1 10.5 21C4.701 21 0 16.299 0 10.5S4.701 0 10.5 0Zm-9 10.5a9 9 0 0 0 9 9 9 9 0 0 0 9-9 9 9 0 0 0-9-9 9 9 0 0 0-9 9Z"></path>
</svg></svg></g></g><defs><clipPath id="SvgjsClipPath1498"><rect width="1000" height="1000" x="0" y="0" rx="350" ry="350"></rect></clipPath></defs></svg></g></svg>